<svg xmlns="http://www.w3.org/2000/svg" viewBox="0 0 1200 720" role="img" aria-labelledby="t d"><title id="t">Shining Force II fan rebuild project artwork</title><desc id="d">Original portfolio artwork showing a retro tactical RPG battlefield with a sword emblem and the project title.</desc><defs><linearGradient id="sky" x1="0" y1="0" x2="0" y2="1"><stop offset="0" stop-color="#13231f"/><stop offset="1" stop-color="#0a100d"/></linearGradient><linearGradient id="gold" x1="0" y1="0" x2="1" y2="1"><stop offset="0" stop-color="#f1ce84"/><stop offset="1" stop-color="#b8793e"/></linearGradient><filter id="glow"><feGaussianBlur stdDeviation="7" result="b"/><feMerge><feMergeNode in="b"/><feMergeNode in="SourceGraphic"/></feMerge></filter></defs><rect width="1200" height="720" fill="url(#sky)"/><g opacity=".18" stroke="#e7ba73" stroke-width="2"><path d="M0 520 360 320 720 520 1080 320 1200 390"/><path d="M0 610 360 410 720 610 1080 410 1200 480"/><path d="M120 720 480 520 840 720"/><path d="M360 720 720 520 1080 720"/></g><g shape-rendering="crispEdges"><path d="M90 465h92v64H90z" fill="#365f4b"/><path d="M112 438h48v27h-48z" fill="#d6d9c5"/><path d="M133 418h8v20h-8z" fill="#e7ba73"/><path d="M298 388h92v64h-92z" fill="#704947"/><path d="M320 361h48v27h-48z" fill="#d6d9c5"/><path d="M341 341h8v20h-8z" fill="#e7ba73"/><path d="M518 495h92v64h-92z" fill="#3c4f79"/><path d="M540 468h48v27h-48z" fill="#d6d9c5"/><path d="M561 448h8v20h-8z" fill="#e7ba73"/><path d="M735 375h92v64h-92z" fill="#7a6539"/><path d="M757 348h48v27h-48z" fill="#d6d9c5"/><path d="M778 328h8v20h-8z" fill="#e7ba73"/></g><g transform="translate(850 120)" filter="url(#glow)"><path d="M78 0h24v26H90v26H78v26H66v26H54v26H42v26H18v-26h12v-26h12V78h12V52h12V26h12z" fill="#f4efdf"/><path d="M0 142h126v18H0z" fill="url(#gold)"/><path d="M52 160h22v76H52z" fill="#aa6c35"/><path d="M38 236h50v19H38z" fill="url(#gold)"/></g><rect x="54" y="50" width="1092" height="620" rx="14" fill="none" stroke="#ffffff22" stroke-width="2"/><text x="70" y="105" font-family="'Courier New',monospace" font-size="18" letter-spacing="4" fill="#9cad96">GAMES &amp; FAN PROJECTS / 001</text><text x="70" y="186" font-family="Georgia,'Times New Roman',serif" font-size="74" fill="#f4efdf">Shining Force II</text><text x="73" y="232" font-family="Arial,Helvetica,sans-serif" font-size="25" fill="#c6cbbd">Unofficial fan rebuild · in progress</text><text x="70" y="626" font-family="'Courier New',monospace" font-size="16" letter-spacing="2" fill="#e7ba73">TACTICAL RPG / RETRO / PERSONAL PROJECT</text><text x="1115" y="635" text-anchor="end" font-family="'Courier New',monospace" font-size="14" fill="#96a491">ORIGINAL PORTFOLIO ARTWORK</text></svg>